<svg width="38" height="38" viewBox="0 0 38 38" fill="none" xmlns="http://www.w3.org/2000/svg">
<g filter="url(#filter0_d_193_903)">
<rect x="2.5" y="0.5" width="33" height="33" rx="16.5" stroke="#D2DDED" shape-rendering="crispEdges"/>
<path d="M26.8197 19.7291L25.1538 18.0489V15.8232C25.1519 14.285 24.5846 12.8022 23.5616 11.6615C22.5386 10.5208 21.1326 9.80314 19.6154 9.64739V8.375H18.3846V9.64739C16.8674 9.80314 15.4614 10.5208 14.4384 11.6615C13.4154 12.8022 12.8481 14.285 12.8462 15.8232V18.0489L11.1803 19.7291C11.0649 19.8455 11 20.0033 11 20.1679V22.03C11 22.1946 11.0648 22.3525 11.1802 22.4689C11.2956 22.5853 11.4522 22.6506 11.6154 22.6506H15.9231V23.1329C15.9097 23.9203 16.1849 24.685 16.6959 25.2805C17.2069 25.876 17.9178 26.2603 18.6923 26.3598C19.1201 26.4026 19.5521 26.3546 19.9604 26.2189C20.3687 26.0832 20.7443 25.8629 21.0631 25.572C21.3819 25.2811 21.6368 24.9261 21.8114 24.5299C21.986 24.1336 22.0764 23.7049 22.0769 23.2713V22.6506H26.3846C26.5478 22.6506 26.7044 22.5853 26.8198 22.4689C26.9352 22.3525 27 22.1946 27 22.03V20.1679C27 20.0033 26.9351 19.8455 26.8197 19.7291ZM20.8462 23.2713C20.8462 23.7652 20.6516 24.2388 20.3054 24.588C19.9592 24.9372 19.4896 25.1334 19 25.1334C18.5104 25.1334 18.0408 24.9372 17.6946 24.588C17.3484 24.2388 17.1538 23.7652 17.1538 23.2713V22.6506H20.8462V23.2713ZM25.7692 21.4093H12.2308V20.4249L13.8966 18.7447C14.012 18.6283 14.0769 18.4705 14.0769 18.3059V15.8232C14.0769 14.5062 14.5956 13.2433 15.5189 12.3121C16.4421 11.3809 17.6943 10.8577 19 10.8577C20.3057 10.8577 21.5579 11.3809 22.4811 12.3121C23.4044 13.2433 23.9231 14.5062 23.9231 15.8232V18.3059C23.9231 18.4705 23.988 18.6283 24.1034 18.7447L25.7692 20.4249V21.4093Z" fill="#152143" stroke="#152143" stroke-width="0.5"/>
</g>
<defs>
<filter id="filter0_d_193_903" x="0" y="0" width="38" height="38" filterUnits="userSpaceOnUse" color-interpolation-filters="sRGB">
<feFlood flood-opacity="0" result="BackgroundImageFix"/>
<feColorMatrix in="SourceAlpha" type="matrix" values="0 0 0 0 0 0 0 0 0 0 0 0 0 0 0 0 0 0 127 0" result="hardAlpha"/>
<feOffset dy="2"/>
<feGaussianBlur stdDeviation="1"/>
<feComposite in2="hardAlpha" operator="out"/>
<feColorMatrix type="matrix" values="0 0 0 0 0.0862745 0 0 0 0 0.0862745 0 0 0 0 0.0862745 0 0 0 0.05 0"/>
<feBlend mode="normal" in2="BackgroundImageFix" result="effect1_dropShadow_193_903"/>
<feBlend mode="normal" in="SourceGraphic" in2="effect1_dropShadow_193_903" result="shape"/>
</filter>
</defs>
</svg>
